<?xml version="1.0" encoding="utf-8"?><!-- Uploaded to: SVG Repo, www.svgrepo.com, Generator: SVG Repo Mixer Tools -->
<svg width="800px" height="800px" viewBox="0 0 400 400" fill="none" xmlns="http://www.w3.org/2000/svg">
<path d="M168.444 277.9C146.549 284.142 129.279 274.912 124.104 251.416C121.337 238.843 122.76 220.72 124.557 208.032C126.551 193.939 128.984 180.4 137.229 168.758C156.677 141.272 227.81 136.426 250.79 159.621C273.248 182.288 295.328 271.011 247.623 280.644C231.007 283.996 213.834 271.241 197.855 269.224C191.89 268.475 178.292 271.964 176.592 271.964" stroke="#000000" stroke-opacity="0.9" stroke-width="16" stroke-linecap="round" stroke-linejoin="round"/>
<path d="M137.326 281.202C141.944 302.488 165.009 307.837 183.922 311.887" stroke="#000000" stroke-opacity="0.9" stroke-width="16" stroke-linecap="round" stroke-linejoin="round"/>
<path d="M180.512 282.339C181.009 292.763 186.283 305.266 188.467 307.341" stroke="#000000" stroke-opacity="0.9" stroke-width="16" stroke-linecap="round" stroke-linejoin="round"/>
<path d="M218.015 284.611C216.212 294.652 211.694 303.355 206.65 311.887" stroke="#000000" stroke-opacity="0.9" stroke-width="16" stroke-linecap="round" stroke-linejoin="round"/>
<path d="M253.247 286.885C244.445 304.876 229.871 308.212 211.197 309.614" stroke="#000000" stroke-opacity="0.9" stroke-width="16" stroke-linecap="round" stroke-linejoin="round"/>
<path d="M163.465 148.234C125.556 87.3997 114.161 114.772 68 144.698" stroke="#000000" stroke-opacity="0.9" stroke-width="16" stroke-linecap="round" stroke-linejoin="round"/>
<path d="M241.883 143.688C246.082 136.758 249.568 129.351 253.138 122.055C255.965 116.273 267.862 90.1906 274.289 88.0014C274.586 87.8986 275.154 93.6844 275.189 93.9837C275.945 100.167 279.253 105.412 282.39 110.55C292.168 126.549 317.151 134.542 332.801 124.36" stroke="#000000" stroke-opacity="0.9" stroke-width="16" stroke-linecap="round" stroke-linejoin="round"/>
<path d="M165.696 234.607C165.611 230.335 165.045 226.263 164.643 222.105" stroke="#000000" stroke-opacity="0.9" stroke-width="16" stroke-linecap="round" stroke-linejoin="round"/>
<path d="M234.32 233.47C234.525 229.285 234.671 225.179 234.671 220.969" stroke="#000000" stroke-opacity="0.9" stroke-width="16" stroke-linecap="round" stroke-linejoin="round"/>
</svg>